<svg width="440px" height="400px" viewBox="0 0 440 400" version="1.1" xmlns="http://www.w3.org/2000/svg" xmlns:xlink="http://www.w3.org/1999/xlink">
    <g id="Page-1" stroke="none" stroke-width="1" fill="none" fill-rule="evenodd">
        <g id="desktop_mac" transform="translate(-20.000000, -40.000000)">
            <polygon id="Path" points="0 0 480 0 480 480 0 480"></polygon>
            <path d="M420,40 L60,40 C38,40 20,58 20,80 L20,320 C20,342 38,360 60,360 L200,360 L160,420 L160,440 L320,440 L320,420 L280,360 L420,360 C442,360 460,342 460,320 L460,80 C460,58 442,40 420,40 Z M420,280 L60,280 L60,80 L420,80 L420,280 Z" id="Shape" fill-opacity="0.2" fill="#505050" fill-rule="nonzero"></path>
        </g>
    </g>
</svg>