<?xml version="1.0" encoding="UTF-8"?>
<svg width="402px" height="402px" viewBox="0 0 402 402" version="1.1" xmlns="http://www.w3.org/2000/svg" xmlns:xlink="http://www.w3.org/1999/xlink">
    <g stroke="none" stroke-width="1" fill="none" fill-rule="evenodd">
        <g id="magic-solid" fill="rgba(80,80,80,0.2" fill-rule="nonzero">
            <path d="M175.875,75.3764722 L188.4375,50.2509815 L213.5625,37.6882361 L188.4375,25.1254907 L175.875,0 L163.3125,25.1254907 L138.1875,37.6882361 L163.3125,50.2509815 L175.875,75.3764722 Z M62.8125,125.627454 L83.7447656,83.754253 L125.625,62.8137268 L83.7447656,41.8732006 L62.8125,0 L41.8802344,41.8732006 L0,62.8137268 L41.8802344,83.754253 L62.8125,125.627454 Z M339.1875,226.129417 L318.255234,268.002617 L276.375,288.943143 L318.255234,309.88367 L339.1875,351.75687 L360.119766,309.88367 L402,288.943143 L360.119766,268.002617 L339.1875,226.129417 Z M394.635234,73.9867185 L328.014727,7.36490947 C323.115352,2.44973535 316.684922,0 310.254492,0 C303.824063,0 297.393633,2.44973535 292.486406,7.36490947 L7.36476562,292.492119 C-2.4496875,302.306764 -2.4496875,318.21434 7.36476562,328.021133 L73.9852734,394.642942 C78.8925,399.550265 85.3229297,402 91.7455078,402 C98.1759375,402 104.606367,399.550265 109.513594,394.642942 L394.635234,109.507881 C404.449688,99.7089396 404.449688,83.7935116 394.635234,73.9867185 Z M282.224414,159.751011 L242.252109,119.777925 L310.246641,51.7820661 L350.218945,91.7551515 L282.224414,159.751011 L282.224414,159.751011 Z" id="Shape"></path>
        </g>
    </g>
</svg>